<?xml version="1.0" standalone="no"?>
<!DOCTYPE svg PUBLIC "-//W3C//DTD SVG 20010904//EN"
 "http://www.w3.org/TR/2001/REC-SVG-20010904/DTD/svg10.dtd">
<svg version="1.0" xmlns="http://www.w3.org/2000/svg"
 width="612.000000pt" height="612.000000pt" viewBox="0 0 612.000000 612.000000"
 preserveAspectRatio="xMidYMid meet">
<metadata>
Created by potrace 1.14, written by Peter Selinger 2001-2017
</metadata>
<g transform="translate(0.000000,612.000000) scale(0.100000,-0.100000)"
fill="#000000" stroke="none">
<path d="M4786 4606 c-49 -100 -113 -183 -205 -266 -133 -120 -210 -171 -751
-494 -356 -212 -488 -303 -618 -430 -305 -297 -475 -707 -460 -1110 5 -124 40
-316 58 -316 4 0 58 32 120 71 227 142 423 302 666 544 288 288 459 485 704
816 160 216 166 225 134 164 -158 -293 -410 -645 -719 -1004 -142 -166 -193
-218 -300 -310 -238 -205 -450 -347 -775 -519 -103 -54 -380 -182 -396 -182
-3 0 -3 17 0 38 3 20 8 127 12 237 l7 199 72 86 c227 268 335 540 335 840 0
205 -40 365 -138 553 -206 394 -644 734 -1254 973 -48 19 -90 34 -92 34 -3 0
11 -26 30 -57 48 -80 69 -143 90 -263 15 -94 16 -140 8 -440 -14 -527 -11
-718 16 -840 51 -242 158 -444 323 -611 118 -119 304 -234 410 -254 l35 -7 4
69 c10 218 -29 542 -104 853 -48 202 -175 602 -233 735 -27 63 -45 115 -39
115 3 0 36 -64 74 -142 133 -278 260 -632 339 -943 34 -136 52 -282 58 -480 6
-211 -5 -393 -38 -624 l-22 -154 34 -28 c19 -16 42 -29 52 -29 35 0 290 136
594 318 l102 61 83 -15 c196 -36 492 -29 703 17 488 105 881 447 1075 934 189
475 216 1085 79 1775 -17 85 -32 156 -33 158 -2 1 -19 -31 -40 -72z"/>
</g>
</svg>
